# 3ds Max Wavefront OBJ Exporter v0.97b - (c)2007 guruware
# File Created: 14.12.2013 15:37:38

mtllib ground.mtl

#
# object Plane001
#

v  -1985.0785 0.0000 1001.4861
v  -1985.0785 0.0000 2001.4862
v  -985.0785 0.0000 2001.4862
v  -985.0785 0.0000 1001.4861
v  14.9215 0.0000 2001.4862
v  14.9215 0.0000 1001.4861
v  1014.9215 0.0000 2001.4862
v  1014.9215 0.0000 1001.4861
v  2014.9215 0.0000 2001.4862
v  2014.9215 0.0000 1001.4861
v  -1985.0785 0.0000 1.4862
v  -985.0785 0.0000 1.4862
v  14.9215 0.0000 1.4862
v  1014.9215 0.0000 1.4862
v  2014.9215 0.0000 1.4862
v  -1985.0785 0.0000 -998.5139
v  -985.0785 0.0000 -998.5139
v  14.9215 0.0000 -998.5139
v  1014.9215 0.0000 -998.5139
v  2014.9215 0.0000 -998.5139
v  -1985.0785 0.0000 -1998.5138
v  -985.0785 0.0000 -1998.5138
v  14.9215 0.0000 -1998.5138
v  1014.9215 0.0000 -1998.5138
v  2014.9215 0.0000 -1998.5138
# 25 vertices

vn 0.0000 1.0000 -0.0000
# 1 vertex normals

vt -3.4604 -1.5000 0.5000
vt -3.4604 -3.5000 0.5000
vt -1.4802 -3.5000 0.5000
vt -1.4802 -1.5000 0.5000
vt 0.5000 -3.5000 0.5000
vt 0.5000 -1.5000 0.5000
vt 2.4802 -3.5000 0.5000
vt 2.4802 -1.5000 0.5000
vt 4.4604 -3.5000 0.5000
vt 4.4604 -1.5000 0.5000
vt -3.4604 0.5000 0.5000
vt -1.4802 0.5000 0.5000
vt 0.5000 0.5000 0.5000
vt 2.4802 0.5000 0.5000
vt 4.4604 0.5000 0.5000
vt -3.4604 2.5000 0.5000
vt -1.4802 2.5000 0.5000
vt 0.5000 2.5000 0.5000
vt 2.4802 2.5000 0.5000
vt 4.4604 2.5000 0.5000
vt -3.4604 4.5000 0.5000
vt -1.4802 4.5000 0.5000
vt 0.5000 4.5000 0.5000
vt 2.4802 4.5000 0.5000
vt 4.4604 4.5000 0.5000
# 25 texture coords

g Plane001
usemtl Material__25
s 1
f 1/1/1 2/2/1 3/3/1 4/4/1 
f 4/4/1 3/3/1 5/5/1 6/6/1 
f 6/6/1 5/5/1 7/7/1 8/8/1 
f 8/8/1 7/7/1 9/9/1 10/10/1 
f 11/11/1 1/1/1 4/4/1 12/12/1 
f 12/12/1 4/4/1 6/6/1 13/13/1 
f 13/13/1 6/6/1 8/8/1 14/14/1 
f 14/14/1 8/8/1 10/10/1 15/15/1 
f 16/16/1 11/11/1 12/12/1 17/17/1 
f 17/17/1 12/12/1 13/13/1 18/18/1 
f 18/18/1 13/13/1 14/14/1 19/19/1 
f 19/19/1 14/14/1 15/15/1 20/20/1 
f 21/21/1 16/16/1 17/17/1 22/22/1 
f 22/22/1 17/17/1 18/18/1 23/23/1 
f 23/23/1 18/18/1 19/19/1 24/24/1 
f 24/24/1 19/19/1 20/20/1 25/25/1 
# 16 polygons

