# 3ds Max Wavefront OBJ Exporter v0.97b - (c)2007 guruware
# File Created: 28.10.2013 21:04:40

mtllib tower.mtl

#
# object Box001
#

v  -50.3004 0.0000 50.1022
v  -50.3004 0.0000 33.4355
v  -33.6338 0.0000 33.4355
v  -33.6338 0.0000 50.1022
v  -16.9671 0.0000 33.4355
v  -16.9671 0.0000 50.1022
v  -0.3004 0.0000 33.4355
v  -0.3004 0.0000 50.1022
v  -50.3004 0.0000 16.7689
v  -33.6338 0.0000 16.7689
v  -16.9671 0.0000 16.7689
v  -0.3004 0.0000 16.7689
v  -50.3004 0.0000 0.1022
v  -33.6338 0.0000 0.1022
v  -16.9671 0.0000 0.1022
v  -0.3004 0.0000 0.1022
v  -50.3004 0.0000 -16.5645
v  -33.6338 0.0000 -16.5645
v  -16.9671 0.0000 -16.5645
v  -0.3004 0.0000 -16.5645
v  -50.3004 0.0000 -33.2311
v  -33.6338 0.0000 -33.2311
v  -16.9671 0.0000 -33.2311
v  -0.3004 0.0000 -33.2311
v  -50.3004 0.0000 -49.8978
v  -33.6338 0.0000 -49.8978
v  -16.9671 0.0000 -49.8978
v  -0.3004 0.0000 -49.8978
v  -55.4075 179.5038 61.2285
v  -35.0321 179.5038 61.2285
v  -35.0321 179.5038 40.8530
v  -55.4075 179.5038 40.8530
v  -35.0321 137.5255 61.2285
v  -14.6567 137.5255 61.2285
v  -14.6567 137.5255 40.8530
v  -35.0321 137.5255 40.8530
v  -0.3004 179.5038 61.2285
v  -0.3004 179.5038 40.8530
v  -14.6567 179.5038 40.8530
v  -14.6567 179.5038 61.2285
v  -55.4075 137.5255 40.8530
v  -35.0321 137.5255 20.4776
v  -55.4075 137.5255 20.4776
v  -14.6567 137.5255 20.4776
v  -0.3004 137.5255 40.8530
v  -0.3004 137.5255 20.4776
v  -55.4075 179.5038 20.4776
v  -35.0321 179.5038 20.4776
v  -35.0321 179.5038 0.1022
v  -55.4075 179.5038 0.1022
v  -14.6567 137.5255 0.1022
v  -35.0321 137.5255 0.1022
v  -0.3004 137.5255 0.1022
v  -35.0321 179.5038 -20.2732
v  -55.4075 179.5038 -20.2732
v  -14.6567 137.5255 -20.2732
v  -35.0321 137.5255 -20.2732
v  -0.3004 137.5255 -20.2732
v  -55.4075 137.5255 -20.2732
v  -35.0321 137.5255 -40.6486
v  -55.4075 137.5255 -40.6486
v  -14.6567 137.5255 -40.6486
v  -0.3004 137.5255 -40.6486
v  -55.4075 179.5038 -40.6486
v  -35.0321 179.5038 -40.6486
v  -35.0321 179.5038 -61.0240
v  -55.4075 179.5038 -61.0240
v  -14.6567 137.5255 -61.0240
v  -35.0321 137.5255 -61.0240
v  -0.3004 179.5038 -40.6486
v  -0.3004 179.5038 -61.0240
v  -14.6567 179.5038 -61.0240
v  -14.6567 179.5038 -40.6486
v  -33.6338 119.5195 50.1022
v  -50.3004 119.5195 50.1022
v  -16.9671 119.5195 50.1022
v  -0.3004 119.5195 50.1022
v  -16.9671 119.5196 -49.8978
v  -0.3004 119.5196 -49.8978
v  -33.6338 119.5196 -49.8978
v  -50.3004 119.5196 -49.8978
v  -50.3004 119.5196 -33.2311
v  -50.3004 119.5196 -16.5644
v  -50.3004 119.5196 0.1022
v  -50.3004 119.5196 16.7689
v  -50.3004 119.5196 33.4356
v  -55.4075 137.6704 61.2285
v  -35.0321 137.6704 61.2285
v  -0.3004 137.6704 -61.0240
v  -14.6567 137.6704 -61.0240
v  -35.0321 137.6704 -61.0240
v  -55.4075 137.6704 -61.0240
v  -55.4075 137.6704 -40.6486
v  -55.4075 137.6704 -20.2732
v  -55.4075 137.6704 0.1022
v  -55.4075 137.6704 20.4776
v  -55.4075 137.6704 40.8531
v  -14.6567 137.6704 61.2285
v  -0.3004 137.6704 61.2285
v  49.6996 0.0000 50.1022
v  33.0329 0.0000 50.1022
v  33.0329 0.0000 33.4355
v  49.6996 0.0000 33.4355
v  16.3663 0.0000 50.1022
v  16.3663 0.0000 33.4355
v  33.0329 0.0000 16.7689
v  49.6996 0.0000 16.7689
v  16.3663 0.0000 16.7689
v  33.0329 0.0000 0.1022
v  49.6996 0.0000 0.1022
v  16.3663 0.0000 0.1022
v  33.0329 0.0000 -16.5645
v  49.6996 0.0000 -16.5645
v  16.3663 0.0000 -16.5645
v  33.0329 0.0000 -33.2311
v  49.6996 0.0000 -33.2311
v  16.3663 0.0000 -33.2311
v  33.0329 0.0000 -49.8978
v  49.6996 0.0000 -49.8978
v  16.3663 0.0000 -49.8978
v  54.8067 179.5038 61.2285
v  54.8067 179.5038 40.8530
v  34.4313 179.5038 40.8530
v  34.4313 179.5038 61.2285
v  34.4313 137.5255 61.2285
v  34.4313 137.5255 40.8530
v  14.0559 137.5255 40.8530
v  14.0559 137.5255 61.2285
v  14.0559 179.5038 61.2285
v  14.0559 179.5038 40.8530
v  54.8067 137.5255 40.8530
v  54.8067 137.5255 20.4776
v  34.4313 137.5255 20.4776
v  14.0559 137.5255 20.4776
v  54.8067 179.5038 20.4776
v  54.8067 179.5038 0.1022
v  34.4313 179.5038 0.1022
v  34.4313 179.5038 20.4776
v  34.4313 137.5255 0.1022
v  14.0559 137.5255 0.1022
v  54.8067 179.5038 -20.2732
v  34.4313 179.5038 -20.2732
v  34.4313 137.5255 -20.2732
v  14.0559 137.5255 -20.2732
v  54.8067 137.5255 -20.2732
v  54.8067 137.5255 -40.6486
v  34.4313 137.5255 -40.6486
v  14.0559 137.5255 -40.6486
v  54.8067 179.5038 -40.6486
v  54.8067 179.5038 -61.0240
v  34.4313 179.5038 -61.0240
v  34.4313 179.5038 -40.6486
v  34.4313 137.5255 -61.0240
v  14.0559 137.5255 -61.0240
v  14.0559 179.5038 -40.6486
v  14.0559 179.5038 -61.0240
v  49.6996 119.5195 50.1022
v  33.0329 119.5195 50.1022
v  16.3663 119.5195 50.1022
v  16.3663 119.5196 -49.8978
v  33.0329 119.5196 -49.8978
v  49.6996 119.5196 -49.8978
v  49.6996 119.5196 -33.2311
v  49.6996 119.5196 -16.5644
v  49.6996 119.5196 0.1022
v  49.6996 119.5196 16.7689
v  49.6996 119.5196 33.4356
v  34.4313 137.6704 61.2285
v  54.8067 137.6704 61.2285
v  14.0559 137.6704 -61.0240
v  54.8067 137.6704 -61.0240
v  34.4313 137.6704 -61.0240
v  54.8067 137.6704 -40.6486
v  54.8067 137.6704 0.1022
v  54.8067 137.6704 -20.2732
v  54.8067 137.6704 20.4776
v  54.8067 137.6704 40.8531
v  14.0559 137.6704 61.2285
# 178 vertices

vn 0.0000 -1.0000 -0.0000
vn 0.0000 1.0000 -0.0000
vn 0.0000 -0.0000 1.0000
vn 0.0000 -0.2715 0.9624
vn 0.0000 -0.2904 0.9569
vn 0.0000 0.0000 -1.0000
vn 0.0000 -0.2715 -0.9624
vn 0.0000 -0.2904 -0.9569
vn -1.0000 0.0000 -0.0000
vn -0.9906 -0.1367 -0.0000
vn -0.9877 -0.1565 -0.0000
vn 0.0000 0.0000 1.0000
vn 0.0000 -0.2494 0.9684
vn 0.0000 -0.3604 0.9328
vn 0.0000 -0.0000 -1.0000
vn -0.0000 -0.2715 -0.9624
vn 0.0000 -0.3604 -0.9328
vn 0.0000 -0.2494 -0.9684
vn -0.9941 -0.1087 -0.0000
vn -0.9833 -0.1821 -0.0000
vn 1.0000 0.0000 -0.0000
vn 0.9877 -0.1565 -0.0000
vn 0.9906 -0.1367 -0.0000
vn -0.0000 -0.0000 -1.0000
vn 0.9833 -0.1821 -0.0000
vn 0.9941 -0.1087 -0.0000
# 26 vertex normals

vt 1.0000 0.0000 0.0000
vt 1.0000 0.1667 0.0000
vt 0.8333 0.1667 0.0000
vt 0.8333 0.0000 0.0000
vt 0.6667 0.1667 0.0000
vt 0.6667 0.0000 0.0000
vt 0.5000 0.1667 0.0000
vt 0.5000 0.0000 0.0000
vt 1.0000 0.3333 0.0000
vt 0.8333 0.3333 0.0000
vt 0.6667 0.3333 0.0000
vt 0.5000 0.3333 0.0000
vt 1.0000 0.5000 0.0000
vt 0.8333 0.5000 0.0000
vt 0.6667 0.5000 0.0000
vt 0.5000 0.5000 0.0000
vt 1.0000 0.6667 0.0000
vt 0.8333 0.6667 0.0000
vt 0.6667 0.6667 0.0000
vt 0.5000 0.6667 0.0000
vt 1.0000 0.8333 0.0000
vt 0.8333 0.8333 0.0000
vt 0.6667 0.8333 0.0000
vt 0.5000 0.8333 0.0000
vt 1.0000 1.0000 0.0000
vt 0.8333 1.0000 0.0000
vt 0.6667 1.0000 0.0000
vt 0.5000 1.0000 0.0000
vt 0.0000 0.0000 0.0000
vt 0.1667 0.0000 0.0000
vt 0.1667 0.1667 0.0000
vt 0.0000 0.1667 0.0000
vt 0.3333 0.0000 0.0000
vt 0.3333 0.1667 0.0000
vt 0.4508 0.0000 0.0000
vt 0.4508 0.1667 0.0000
vt 0.1667 0.3333 0.0000
vt 0.0000 0.3333 0.0000
vt 0.3333 0.3333 0.0000
vt 0.4508 0.3333 0.0000
vt 0.1667 0.5000 0.0000
vt 0.0000 0.5000 0.0000
vt 0.3333 0.5000 0.0000
vt 0.4508 0.5000 0.0000
vt 0.1667 0.6667 0.0000
vt 0.0000 0.6667 0.0000
vt 0.3333 0.6667 0.0000
vt 0.4508 0.6667 0.0000
vt 0.1667 0.8333 0.0000
vt 0.0000 0.8333 0.0000
vt 0.3333 0.8333 0.0000
vt 0.4508 0.8333 0.0000
vt 0.1667 1.0000 0.0000
vt 0.0000 1.0000 0.0000
vt 0.3333 1.0000 0.0000
vt 0.4508 1.0000 0.0000
vt 0.1667 0.2500 0.0000
vt 0.0000 0.2500 0.0000
vt 0.3333 0.2500 0.0000
vt 0.5000 0.2500 0.0000
vt 0.6667 0.2500 0.0000
vt 0.8333 0.2500 0.0000
vt 1.0000 0.2500 0.0000
vt 0.5492 1.0000 0.0000
vt 0.5492 0.5000 0.0000
# 65 texture coords

g Box001
usemtl 02___Default
s 2
f 1/1/1 2/2/1 3/3/1 4/4/1 
f 4/4/1 3/3/1 5/5/1 6/6/1 
f 6/6/1 5/5/1 7/7/1 8/8/1 
f 2/2/1 9/9/1 10/10/1 3/3/1 
f 3/3/1 10/10/1 11/11/1 5/5/1 
f 5/5/1 11/11/1 12/12/1 7/7/1 
f 9/9/1 13/13/1 14/14/1 10/10/1 
f 10/10/1 14/14/1 15/15/1 11/11/1 
f 11/11/1 15/15/1 16/16/1 12/12/1 
f 13/13/1 17/17/1 18/18/1 14/14/1 
f 14/14/1 18/18/1 19/19/1 15/15/1 
f 15/15/1 19/19/1 20/20/1 16/16/1 
f 17/17/1 21/21/1 22/22/1 18/18/1 
f 18/18/1 22/22/1 23/23/1 19/19/1 
f 19/19/1 23/23/1 24/24/1 20/20/1 
f 21/21/1 25/25/1 26/26/1 22/22/1 
f 22/22/1 26/26/1 27/27/1 23/23/1 
f 23/23/1 27/27/1 28/28/1 24/24/1 
s 4
f 29/29/2 30/30/2 31/31/2 32/32/2 
f 33/30/2 34/33/2 35/34/2 36/31/2 
f 37/35/2 38/36/2 39/34/2 40/33/2 
f 41/32/2 36/31/2 42/37/2 43/38/2 
f 36/31/2 35/34/2 44/39/2 42/37/2 
f 45/36/2 46/40/2 44/39/2 35/34/2 
f 47/38/2 48/37/2 49/41/2 50/42/2 
f 42/37/2 44/39/2 51/43/2 52/41/2 
f 46/40/2 53/44/2 51/43/2 44/39/2 
f 50/42/2 49/41/2 54/45/2 55/46/2 
f 52/41/2 51/43/2 56/47/2 57/45/2 
f 53/44/2 58/48/2 56/47/2 51/43/2 
f 59/46/2 57/45/2 60/49/2 61/50/2 
f 57/45/2 56/47/2 62/51/2 60/49/2 
f 58/48/2 63/52/2 62/51/2 56/47/2 
f 64/50/2 65/49/2 66/53/2 67/54/2 
f 60/49/2 62/51/2 68/55/2 69/53/2 
f 70/52/2 71/56/2 72/55/2 73/51/2 
s 8
f 4/30/3 74/57/4 75/58/5 1/29/3 
f 6/33/3 76/59/4 74/57/4 4/30/3 
f 8/8/3 77/60/4 76/59/4 6/33/3 
s 32
f 27/6/6 78/61/7 79/60/7 28/8/6 
f 26/4/6 80/62/7 78/61/7 27/6/6 
f 25/1/6 81/63/8 80/62/7 26/4/6 
s 64
f 21/30/9 82/57/10 81/58/11 25/29/9 
f 17/33/9 83/59/10 82/57/10 21/30/9 
f 13/8/9 84/60/10 83/59/10 17/33/9 
f 9/6/9 85/61/10 84/60/10 13/8/9 
f 2/4/9 86/62/10 85/61/10 9/6/9 
f 1/1/9 75/63/11 86/62/10 2/4/9 
s 8
f 30/53/12 29/54/12 87/42/13 88/41/14 
s 32
f 72/27/15 71/64/6 89/65/16 90/15/17 
f 67/25/15 66/26/15 91/14/17 92/13/18 
s 64
f 64/53/9 67/54/9 92/42/19 93/41/20 
f 50/28/9 55/55/9 94/43/20 95/16/10 
f 47/27/9 50/28/9 95/16/10 96/15/20 
f 29/25/9 32/26/9 97/14/20 87/13/19 
s off
f 31/31/21 30/30/21 33/30/21 36/31/21 
f 40/33/9 39/34/9 35/34/9 34/33/9 
f 38/36/6 45/36/6 35/34/6 39/34/6 
f 73/51/9 72/55/9 68/55/9 62/51/9 
f 66/53/21 65/49/21 60/49/21 69/53/21 
f 65/49/12 64/50/12 61/50/12 60/49/12 
f 55/46/6 54/45/6 57/45/6 59/46/6 
f 54/45/21 49/41/21 52/41/21 57/45/21 
f 49/41/21 48/37/21 42/37/21 52/41/21 
f 48/37/12 47/38/12 43/38/12 42/37/12 
f 32/32/6 31/31/6 36/31/6 41/32/6 
s 8
f 88/41/14 87/42/13 75/58/5 74/57/4 
f 98/43/14 88/41/14 74/57/4 76/59/4 
f 77/60/4 99/44/4 98/43/14 76/59/4 
s 32
f 90/15/17 89/65/16 79/60/7 78/61/7 
f 91/14/17 90/15/17 78/61/7 80/62/7 
f 92/13/18 91/14/17 80/62/7 81/63/8 
s 64
f 93/41/20 92/42/19 81/58/11 82/57/10 
f 94/43/20 93/41/20 82/57/10 83/59/10 
f 95/16/10 94/43/20 83/59/10 84/60/10 
f 96/15/20 95/16/10 84/60/10 85/61/10 
f 97/14/20 96/15/20 85/61/10 86/62/10 
f 87/13/19 97/14/20 86/62/10 75/63/11 
s 8
f 40/55/12 98/43/14 99/44/4 37/56/12 
s off
f 73/51/12 62/51/12 63/52/12 70/52/12 
s 2
f 100/1/1 101/4/1 102/3/1 103/2/1 
f 101/4/1 104/6/1 105/5/1 102/3/1 
f 104/6/1 8/8/1 7/7/1 105/5/1 
f 103/2/1 102/3/1 106/10/1 107/9/1 
f 102/3/1 105/5/1 108/11/1 106/10/1 
f 105/5/1 7/7/1 12/12/1 108/11/1 
f 107/9/1 106/10/1 109/14/1 110/13/1 
f 106/10/1 108/11/1 111/15/1 109/14/1 
f 108/11/1 12/12/1 16/16/1 111/15/1 
f 110/13/1 109/14/1 112/18/1 113/17/1 
f 109/14/1 111/15/1 114/19/1 112/18/1 
f 111/15/1 16/16/1 20/20/1 114/19/1 
f 113/17/1 112/18/1 115/22/1 116/21/1 
f 112/18/1 114/19/1 117/23/1 115/22/1 
f 114/19/1 20/20/1 24/24/1 117/23/1 
f 116/21/1 115/22/1 118/26/1 119/25/1 
f 115/22/1 117/23/1 120/27/1 118/26/1 
f 117/23/1 24/24/1 28/28/1 120/27/1 
s 4
f 121/29/2 122/32/2 123/31/2 124/30/2 
f 125/30/2 126/31/2 127/34/2 128/33/2 
f 37/35/2 129/33/2 130/34/2 38/36/2 
f 131/32/2 132/38/2 133/37/2 126/31/2 
f 126/31/2 133/37/2 134/39/2 127/34/2 
f 45/36/2 127/34/2 134/39/2 46/40/2 
f 135/38/2 136/42/2 137/41/2 138/37/2 
f 133/37/2 139/41/2 140/43/2 134/39/2 
f 46/40/2 134/39/2 140/43/2 53/44/2 
f 136/42/2 141/46/2 142/45/2 137/41/2 
f 139/41/2 143/45/2 144/47/2 140/43/2 
f 53/44/2 140/43/2 144/47/2 58/48/2 
f 145/46/2 146/50/2 147/49/2 143/45/2 
f 143/45/2 147/49/2 148/51/2 144/47/2 
f 58/48/2 144/47/2 148/51/2 63/52/2 
f 149/50/2 150/54/2 151/53/2 152/49/2 
f 147/49/2 153/53/2 154/55/2 148/51/2 
f 70/52/2 155/51/2 156/55/2 71/56/2 
s 8
f 101/30/3 100/29/3 157/58/5 158/57/4 
f 104/33/3 101/30/3 158/57/4 159/59/4 
f 8/8/3 104/33/3 159/59/4 77/60/4 
s 32
f 120/6/6 28/8/6 79/60/7 160/61/7 
f 118/4/6 120/6/6 160/61/7 161/62/7 
f 119/1/6 118/4/6 161/62/7 162/63/8 
s 64
f 116/30/21 119/29/21 162/58/22 163/57/23 
f 113/33/21 116/30/21 163/57/23 164/59/23 
f 110/8/21 113/33/21 164/59/23 165/60/23 
f 107/6/21 110/8/21 165/60/23 166/61/23 
f 103/4/21 107/6/21 166/61/23 167/62/23 
f 100/1/21 103/4/21 167/62/23 157/63/22 
s 8
f 124/53/12 168/41/14 169/42/13 121/54/12 
s 32
f 156/27/24 170/15/17 89/65/16 71/64/6 
f 150/25/15 171/13/18 172/14/17 151/26/15 
s 64
f 149/53/21 173/41/25 171/42/26 150/54/21 
f 136/28/21 174/16/23 175/43/25 141/55/21 
f 135/27/21 176/15/25 174/16/23 136/28/21 
f 121/25/21 169/13/26 177/14/25 122/26/21 
s off
f 123/31/9 126/31/9 125/30/9 124/30/9 
f 129/33/21 128/33/21 127/34/21 130/34/21 
f 38/36/6 130/34/6 127/34/6 45/36/6 
f 155/51/21 148/51/21 154/55/21 156/55/21 
f 151/53/9 153/53/9 147/49/9 152/49/9 
f 152/49/12 147/49/12 146/50/12 149/50/12 
f 141/46/6 145/46/6 143/45/6 142/45/6 
f 142/45/9 143/45/9 139/41/9 137/41/9 
f 137/41/9 139/41/9 133/37/9 138/37/9 
f 138/37/12 133/37/12 132/38/12 135/38/12 
f 122/32/6 131/32/6 126/31/6 123/31/6 
s 8
f 168/41/14 158/57/4 157/58/5 169/42/13 
f 178/43/14 159/59/4 158/57/4 168/41/14 
f 77/60/4 159/59/4 178/43/14 99/44/4 
s 32
f 170/15/17 160/61/7 79/60/7 89/65/16 
f 172/14/17 161/62/7 160/61/7 170/15/17 
f 171/13/18 162/63/8 161/62/7 172/14/17 
s 64
f 173/41/25 163/57/23 162/58/22 171/42/26 
f 175/43/25 164/59/23 163/57/23 173/41/25 
f 174/16/23 165/60/23 164/59/23 175/43/25 
f 176/15/25 166/61/23 165/60/23 174/16/23 
f 177/14/25 167/62/23 166/61/23 176/15/25 
f 169/13/26 157/63/22 167/62/23 177/14/25 
s 8
f 129/55/12 37/56/12 99/44/4 178/43/14 
s off
f 155/51/12 70/52/12 63/52/12 148/51/12 
# 160 polygons

