# 3ds Max Wavefront OBJ Exporter v0.97b - (c)2007 guruware
# File Created: 28.10.2013 21:30:25

mtllib wall.mtl

#
# object Box001
#

v  -50.3004 0.0000 50.1022
v  -50.3004 0.0000 33.4355
v  -33.6338 0.0000 33.4355
v  -33.6338 0.0000 50.1022
v  -16.9671 0.0000 33.4355
v  -16.9671 0.0000 50.1022
v  -0.3004 0.0000 33.4355
v  -0.3004 0.0000 50.1022
v  -50.3004 0.0000 16.7689
v  -33.6338 0.0000 16.7689
v  -16.9671 0.0000 16.7689
v  -0.3004 0.0000 16.7689
v  -50.3004 0.0000 0.1022
v  -33.6338 0.0000 0.1022
v  -16.9671 0.0000 0.1022
v  -0.3004 0.0000 0.1022
v  -50.3004 0.0000 -16.5645
v  -33.6338 0.0000 -16.5645
v  -16.9671 0.0000 -16.5645
v  -0.3004 0.0000 -16.5645
v  -50.3004 0.0000 -33.2311
v  -33.6338 0.0000 -33.2311
v  -16.9671 0.0000 -33.2311
v  -0.3004 0.0000 -33.2311
v  -50.3004 0.0000 -49.8978
v  -33.6338 0.0000 -49.8978
v  -16.9671 0.0000 -49.8978
v  -0.3004 0.0000 -49.8978
v  -50.3004 138.4174 50.1022
v  -33.6338 138.4174 50.1022
v  -33.6338 138.4174 33.4355
v  -50.3004 138.4174 33.4355
v  -33.6338 115.8087 50.1022
v  -16.9671 115.8087 50.1022
v  -16.9671 115.8087 33.4355
v  -33.6338 115.8087 33.4355
v  -16.9671 138.4174 50.1022
v  -0.3004 138.4174 50.1022
v  -0.3004 138.4174 33.4355
v  -16.9671 138.4174 33.4355
v  -50.3004 115.8087 33.4355
v  -33.6338 115.8087 16.7689
v  -50.3004 115.8087 16.7689
v  -16.9671 115.8087 16.7689
v  -0.3004 115.8087 33.4355
v  -0.3004 115.8087 16.7689
v  -50.3004 138.4174 16.7689
v  -33.6338 138.4174 16.7689
v  -33.6338 138.4174 0.1022
v  -50.3004 138.4174 0.1022
v  -16.9671 115.8087 0.1022
v  -33.6338 115.8087 0.1022
v  -0.3004 115.8087 0.1022
v  -33.6338 138.4174 -16.5645
v  -50.3004 138.4174 -16.5645
v  -16.9671 115.8087 -16.5645
v  -33.6338 115.8087 -16.5645
v  -0.3004 115.8087 -16.5645
v  -50.3004 115.8087 -16.5645
v  -33.6338 115.8087 -33.2311
v  -50.3004 115.8087 -33.2311
v  -16.9671 115.8087 -33.2311
v  -0.3004 115.8087 -33.2311
v  -50.3004 138.4174 -33.2311
v  -33.6338 138.4174 -33.2311
v  -33.6338 138.4174 -49.8978
v  -50.3004 138.4174 -49.8978
v  -16.9671 115.8087 -49.8978
v  -33.6338 115.8087 -49.8978
v  -16.9671 138.4174 -33.2311
v  -0.3004 138.4174 -33.2311
v  -0.3004 138.4174 -49.8978
v  -16.9671 138.4174 -49.8978
v  -33.6338 115.9272 50.1022
v  -50.3004 115.9272 50.1022
v  -16.9671 115.9272 50.1022
v  -0.3004 115.9272 50.1022
v  -16.9671 115.9272 -49.8978
v  -0.3004 115.9272 -49.8978
v  -33.6338 115.9272 -49.8978
v  -50.3004 115.9272 -49.8978
v  -50.3004 115.9272 -33.2311
v  -50.3004 115.9272 -16.5644
v  -50.3004 115.9272 0.1022
v  -50.3004 115.9272 16.7689
v  -50.3004 115.9272 33.4355
v  49.6996 0.0000 50.1022
v  33.0329 0.0000 50.1022
v  33.0329 0.0000 33.4355
v  49.6996 0.0000 33.4355
v  16.3663 0.0000 50.1022
v  16.3663 0.0000 33.4355
v  33.0329 0.0000 16.7689
v  49.6996 0.0000 16.7689
v  16.3663 0.0000 16.7689
v  33.0329 0.0000 0.1022
v  49.6996 0.0000 0.1022
v  16.3663 0.0000 0.1022
v  33.0329 0.0000 -16.5645
v  49.6996 0.0000 -16.5645
v  16.3663 0.0000 -16.5645
v  33.0329 0.0000 -33.2311
v  49.6996 0.0000 -33.2311
v  16.3663 0.0000 -33.2311
v  33.0329 0.0000 -49.8978
v  49.6996 0.0000 -49.8978
v  16.3663 0.0000 -49.8978
v  49.6996 138.4174 50.1022
v  49.6996 138.4174 33.4355
v  33.0329 138.4174 33.4355
v  33.0329 138.4174 50.1022
v  33.0329 115.8087 50.1022
v  33.0329 115.8087 33.4355
v  16.3663 115.8087 33.4355
v  16.3663 115.8087 50.1022
v  16.3663 138.4174 50.1022
v  16.3663 138.4174 33.4355
v  49.6996 115.8087 33.4355
v  49.6996 115.8087 16.7689
v  33.0329 115.8087 16.7689
v  16.3663 115.8087 16.7689
v  49.6996 138.4174 16.7689
v  49.6996 138.4174 0.1022
v  33.0329 138.4174 0.1022
v  33.0329 138.4174 16.7689
v  33.0329 115.8087 0.1022
v  16.3663 115.8087 0.1022
v  49.6996 138.4174 -16.5645
v  33.0329 138.4174 -16.5645
v  33.0329 115.8087 -16.5645
v  16.3663 115.8087 -16.5645
v  49.6996 115.8087 -16.5645
v  49.6996 115.8087 -33.2311
v  33.0329 115.8087 -33.2311
v  16.3663 115.8087 -33.2311
v  49.6996 138.4174 -33.2311
v  49.6996 138.4174 -49.8978
v  33.0329 138.4174 -49.8978
v  33.0329 138.4174 -33.2311
v  33.0329 115.8087 -49.8978
v  16.3663 115.8087 -49.8978
v  16.3663 138.4174 -33.2311
v  16.3663 138.4174 -49.8978
v  49.6996 115.9272 50.1022
v  33.0329 115.9272 50.1022
v  16.3663 115.9272 50.1022
v  16.3663 115.9272 -49.8978
v  33.0329 115.9272 -49.8978
v  49.6996 115.9272 -49.8978
v  49.6996 115.9272 -33.2311
v  49.6996 115.9272 -16.5644
v  49.6996 115.9272 0.1022
v  49.6996 115.9272 16.7689
v  49.6996 115.9272 33.4355
# 154 vertices

vn 0.0000 -1.0000 -0.0000
vn 0.0000 1.0000 -0.0000
vn 0.0000 0.0000 1.0000
vn 0.0000 0.0000 -1.0000
vn -1.0000 0.0000 -0.0000
vn 1.0000 0.0000 -0.0000
vn 0.0000 -0.0000 1.0000
vn 0.0000 -0.0000 -1.0000
# 8 vertex normals

vt 1.0000 0.0000 0.0000
vt 1.0000 0.1667 0.0000
vt 0.8333 0.1667 0.0000
vt 0.8333 0.0000 0.0000
vt 0.6667 0.1667 0.0000
vt 0.6667 0.0000 0.0000
vt 0.5000 0.1667 0.0000
vt 0.5000 0.0000 0.0000
vt 1.0000 0.3333 0.0000
vt 0.8333 0.3333 0.0000
vt 0.6667 0.3333 0.0000
vt 0.5000 0.3333 0.0000
vt 1.0000 0.5000 0.0000
vt 0.8333 0.5000 0.0000
vt 0.6667 0.5000 0.0000
vt 0.5000 0.5000 0.0000
vt 1.0000 0.6667 0.0000
vt 0.8333 0.6667 0.0000
vt 0.6667 0.6667 0.0000
vt 0.5000 0.6667 0.0000
vt 1.0000 0.8333 0.0000
vt 0.8333 0.8333 0.0000
vt 0.6667 0.8333 0.0000
vt 0.5000 0.8333 0.0000
vt 1.0000 1.0000 0.0000
vt 0.8333 1.0000 0.0000
vt 0.6667 1.0000 0.0000
vt 0.5000 1.0000 0.0000
vt 0.0000 0.0000 0.0000
vt 0.1667 0.0000 0.0000
vt 0.1667 0.1667 0.0000
vt 0.0000 0.1667 0.0000
vt 0.3333 0.0000 0.0000
vt 0.3333 0.1667 0.0000
vt 0.1667 0.3333 0.0000
vt 0.0000 0.3333 0.0000
vt 0.3333 0.3333 0.0000
vt 0.1667 0.5000 0.0000
vt 0.0000 0.5000 0.0000
vt 0.3333 0.5000 0.0000
vt 0.1667 0.6667 0.0000
vt 0.0000 0.6667 0.0000
vt 0.3333 0.6667 0.0000
vt 0.1667 0.8333 0.0000
vt 0.0000 0.8333 0.0000
vt 0.3333 0.8333 0.0000
vt 0.1667 1.0000 0.0000
vt 0.0000 1.0000 0.0000
vt 0.3333 1.0000 0.0000
# 49 texture coords

g Box001
usemtl Material__46
s 2
f 1/1/1 2/2/1 3/3/1 4/4/1 
f 4/4/1 3/3/1 5/5/1 6/6/1 
f 6/6/1 5/5/1 7/7/1 8/8/1 
f 2/2/1 9/9/1 10/10/1 3/3/1 
f 3/3/1 10/10/1 11/11/1 5/5/1 
f 5/5/1 11/11/1 12/12/1 7/7/1 
f 9/9/1 13/13/1 14/14/1 10/10/1 
f 10/10/1 14/14/1 15/15/1 11/11/1 
f 11/11/1 15/15/1 16/16/1 12/12/1 
f 13/13/1 17/17/1 18/18/1 14/14/1 
f 14/14/1 18/18/1 19/19/1 15/15/1 
f 15/15/1 19/19/1 20/20/1 16/16/1 
f 17/17/1 21/21/1 22/22/1 18/18/1 
f 18/18/1 22/22/1 23/23/1 19/19/1 
f 19/19/1 23/23/1 24/24/1 20/20/1 
f 21/21/1 25/25/1 26/26/1 22/22/1 
f 22/22/1 26/26/1 27/27/1 23/23/1 
f 23/23/1 27/27/1 28/28/1 24/24/1 
s 4
f 29/29/2 30/30/2 31/31/2 32/32/2 
f 33/30/2 34/33/2 35/34/2 36/31/2 
f 37/33/2 38/8/2 39/7/2 40/34/2 
f 41/32/2 36/31/2 42/35/2 43/36/2 
f 36/31/2 35/34/2 44/37/2 42/35/2 
f 35/34/2 45/7/2 46/12/2 44/37/2 
f 47/36/2 48/35/2 49/38/2 50/39/2 
f 42/35/2 44/37/2 51/40/2 52/38/2 
f 44/37/2 46/12/2 53/16/2 51/40/2 
f 50/39/2 49/38/2 54/41/2 55/42/2 
f 52/38/2 51/40/2 56/43/2 57/41/2 
f 51/40/2 53/16/2 58/20/2 56/43/2 
f 59/42/2 57/41/2 60/44/2 61/45/2 
f 57/41/2 56/43/2 62/46/2 60/44/2 
f 56/43/2 58/20/2 63/24/2 62/46/2 
f 64/45/2 65/44/2 66/47/2 67/48/2 
f 60/44/2 62/46/2 68/49/2 69/47/2 
f 70/46/2 71/24/2 72/28/2 73/49/2 
s 8
f 4/30/3 74/38/3 75/39/3 1/29/3 
f 6/33/3 76/40/3 74/38/3 4/30/3 
f 8/8/3 77/16/3 76/40/3 6/33/3 
s 32
f 27/6/4 78/15/4 79/16/4 28/8/4 
f 26/4/4 80/14/4 78/15/4 27/6/4 
f 25/1/4 81/13/4 80/14/4 26/4/4 
s 64
f 21/30/5 82/38/5 81/39/5 25/29/5 
f 17/33/5 83/40/5 82/38/5 21/30/5 
f 13/8/5 84/16/5 83/40/5 17/33/5 
f 9/6/5 85/15/5 84/16/5 13/8/5 
f 2/4/5 86/14/5 85/15/5 9/6/5 
f 1/1/5 75/13/5 86/14/5 2/4/5 
s 8
f 30/47/3 29/48/3 75/39/3 74/38/3 
f 38/28/3 37/49/3 76/40/3 77/16/3 
s 32
f 73/27/4 72/28/4 79/16/4 78/15/4 
f 67/25/4 66/26/4 80/14/4 81/13/4 
s 64
f 64/47/5 67/48/5 81/39/5 82/38/5 
f 50/28/5 55/49/5 83/40/5 84/16/5 
f 47/27/5 50/28/5 84/16/5 85/15/5 
f 29/25/5 32/26/5 86/14/5 75/13/5 
s off
f 31/31/6 30/30/6 33/30/6 36/31/6 
f 37/33/5 40/34/5 35/34/5 34/33/5 
f 40/34/4 39/7/4 45/7/4 35/34/4 
f 71/24/7 70/46/7 62/46/7 63/24/7 
f 70/46/5 73/49/5 68/49/5 62/46/5 
f 66/47/6 65/44/6 60/44/6 69/47/6 
f 65/44/7 64/45/7 61/45/7 60/44/7 
f 55/42/8 54/41/8 57/41/8 59/42/8 
f 54/41/6 49/38/6 52/38/6 57/41/6 
f 49/38/6 48/35/6 42/35/6 52/38/6 
f 48/35/3 47/36/3 43/36/3 42/35/3 
f 32/32/4 31/31/4 36/31/4 41/32/4 
s 2
f 87/1/1 88/4/1 89/3/1 90/2/1 
f 88/4/1 91/6/1 92/5/1 89/3/1 
f 91/6/1 8/8/1 7/7/1 92/5/1 
f 90/2/1 89/3/1 93/10/1 94/9/1 
f 89/3/1 92/5/1 95/11/1 93/10/1 
f 92/5/1 7/7/1 12/12/1 95/11/1 
f 94/9/1 93/10/1 96/14/1 97/13/1 
f 93/10/1 95/11/1 98/15/1 96/14/1 
f 95/11/1 12/12/1 16/16/1 98/15/1 
f 97/13/1 96/14/1 99/18/1 100/17/1 
f 96/14/1 98/15/1 101/19/1 99/18/1 
f 98/15/1 16/16/1 20/20/1 101/19/1 
f 100/17/1 99/18/1 102/22/1 103/21/1 
f 99/18/1 101/19/1 104/23/1 102/22/1 
f 101/19/1 20/20/1 24/24/1 104/23/1 
f 103/21/1 102/22/1 105/26/1 106/25/1 
f 102/22/1 104/23/1 107/27/1 105/26/1 
f 104/23/1 24/24/1 28/28/1 107/27/1 
s 4
f 108/29/2 109/32/2 110/31/2 111/30/2 
f 112/30/2 113/31/2 114/34/2 115/33/2 
f 116/33/2 117/34/2 39/7/2 38/8/2 
f 118/32/2 119/36/2 120/35/2 113/31/2 
f 113/31/2 120/35/2 121/37/2 114/34/2 
f 114/34/2 121/37/2 46/12/2 45/7/2 
f 122/36/2 123/39/2 124/38/2 125/35/2 
f 120/35/2 126/38/2 127/40/2 121/37/2 
f 121/37/2 127/40/2 53/16/2 46/12/2 
f 123/39/2 128/42/2 129/41/2 124/38/2 
f 126/38/2 130/41/2 131/43/2 127/40/2 
f 127/40/2 131/43/2 58/20/2 53/16/2 
f 132/42/2 133/45/2 134/44/2 130/41/2 
f 130/41/2 134/44/2 135/46/2 131/43/2 
f 131/43/2 135/46/2 63/24/2 58/20/2 
f 136/45/2 137/48/2 138/47/2 139/44/2 
f 134/44/2 140/47/2 141/49/2 135/46/2 
f 142/46/2 143/49/2 72/28/2 71/24/2 
s 8
f 88/30/3 87/29/3 144/39/3 145/38/3 
f 91/33/3 88/30/3 145/38/3 146/40/3 
f 8/8/3 91/33/3 146/40/3 77/16/3 
s 32
f 107/6/4 28/8/4 79/16/4 147/15/4 
f 105/4/4 107/6/4 147/15/4 148/14/4 
f 106/1/4 105/4/4 148/14/4 149/13/4 
s 64
f 103/30/6 106/29/6 149/39/6 150/38/6 
f 100/33/6 103/30/6 150/38/6 151/40/6 
f 97/8/6 100/33/6 151/40/6 152/16/6 
f 94/6/6 97/8/6 152/16/6 153/15/6 
f 90/4/6 94/6/6 153/15/6 154/14/6 
f 87/1/6 90/4/6 154/14/6 144/13/6 
s 8
f 111/47/3 145/38/3 144/39/3 108/48/3 
f 38/28/3 77/16/3 146/40/3 116/49/3 
s 32
f 143/27/4 147/15/4 79/16/4 72/28/4 
f 137/25/4 149/13/4 148/14/4 138/26/4 
s 64
f 136/47/6 150/38/6 149/39/6 137/48/6 
f 123/28/6 152/16/6 151/40/6 128/49/6 
f 122/27/6 153/15/6 152/16/6 123/28/6 
f 108/25/6 144/13/6 154/14/6 109/26/6 
s off
f 110/31/5 113/31/5 112/30/5 111/30/5 
f 116/33/6 115/33/6 114/34/6 117/34/6 
f 117/34/4 114/34/4 45/7/4 39/7/4 
f 71/24/7 63/24/7 135/46/7 142/46/7 
f 142/46/6 135/46/6 141/49/6 143/49/6 
f 138/47/5 140/47/5 134/44/5 139/44/5 
f 139/44/7 134/44/7 133/45/7 136/45/7 
f 128/42/8 132/42/8 130/41/8 129/41/8 
f 129/41/5 130/41/5 126/38/5 124/38/5 
f 124/38/5 126/38/5 120/35/5 125/35/5 
f 125/35/3 120/35/3 119/36/3 122/36/3 
f 109/32/4 118/32/4 113/31/4 110/31/4 
# 136 polygons

